<svg id="SvgjsSvg1026" width="256" height="256" xmlns="http://www.w3.org/2000/svg" version="1.1"
    xmlns:xlink="http://www.w3.org/1999/xlink" xmlns:svgjs="http://svgjs.com/svgjs">
    <defs id="SvgjsDefs1027"></defs>
    <g id="SvgjsG1028">
        <svg xmlns="http://www.w3.org/2000/svg" data-name="Layer 1" viewBox="0 0 128 128"
            width="256" height="256">
            <path
                d="M122.55127,78.52148a9.305,9.305,0,0,0-9.98533,1.42576c-.2231.19768-.56594-.07392-.56594-.32029V48.373A4.37833,4.37833,0,0,0,107.62646,44a4.27714,4.27714,0,0,0-2.84717,1.06055,5.29912,5.29912,0,0,1-5.68945.76953,5.32031,5.32031,0,0,1-.00049-9.66016,5.29871,5.29871,0,0,1,5.68945.76953A4.27962,4.27962,0,0,0,107.62646,38,4.37833,4.37833,0,0,0,112,33.627V18a2.0001,2.0001,0,0,0-2-2H94.37357c-.24312,0-.51977-.34506-.32132-.56641a9.30142,9.30142,0,0,0,1.42627-9.98437,9.32091,9.32091,0,0,0-16.95752,0,9.30167,9.30167,0,0,0,1.42722,9.98533c.19823.22355-.07537.56545-.32176.56545H48.37354A4.37833,4.37833,0,0,0,44,20.373a4.275,4.275,0,0,0,1.06055,2.84766,5.297,5.297,0,0,1,.77,5.68945,5.32052,5.32052,0,0,1-9.66064,0,5.297,5.297,0,0,1,.77-5.68945A4.27641,4.27641,0,0,0,38,20.373,4.37833,4.37833,0,0,0,33.62646,16H18a2.0001,2.0001,0,0,0-2,2V33.627a.37343.37343,0,0,1-.37354.373.3137.3137,0,0,1-.19287-.05273,9.30743,9.30743,0,0,0-9.98486-1.42578,9.3207,9.3207,0,0,0,.00049,16.957,9.30409,9.30409,0,0,0,9.98389-1.4248A.30928.30928,0,0,1,15.62646,48,.37343.37343,0,0,1,16,48.373V79.627A4.37833,4.37833,0,0,0,20.37354,84a4.27714,4.27714,0,0,0,2.84717-1.06055,5.29666,5.29666,0,0,1,5.68945-.76953,5.32031,5.32031,0,0,1,.00049,9.66016,5.29735,5.29735,0,0,1-5.68945-.76953A4.27962,4.27962,0,0,0,20.37354,90,4.37833,4.37833,0,0,0,16,94.373V110a2.0001,2.0001,0,0,0,2,2H33.62646A.37343.37343,0,0,1,34,112.373a.31877.31877,0,0,1-.05273.19336,9.30142,9.30142,0,0,0-1.42627,9.98438,9.32091,9.32091,0,0,0,16.95752,0,9.30142,9.30142,0,0,0-1.42627-9.98437A.318.318,0,0,1,48,112.373a.37343.37343,0,0,1,.37354-.373H79.62646A4.37833,4.37833,0,0,0,84,107.627a4.275,4.275,0,0,0-1.06055-2.84766,5.297,5.297,0,0,1-.77-5.68945,5.32052,5.32052,0,0,1,9.66064,0,5.297,5.297,0,0,1-.77,5.68945A4.27641,4.27641,0,0,0,90,107.627,4.37833,4.37833,0,0,0,94.37354,112H110a2.0001,2.0001,0,0,0,2-2V94.37307c0-.2436.34492-.51968.56641-.32034a9.30336,9.30336,0,0,0,9.98438,1.42578,9.3207,9.3207,0,0,0,.00049-16.957ZM66,20H79.62646A4.37833,4.37833,0,0,0,84,15.627a4.275,4.275,0,0,0-1.06055-2.84766,5.297,5.297,0,0,1-.77-5.68945,5.32052,5.32052,0,0,1,9.66064,0,5.297,5.297,0,0,1-.77,5.68945A4.27641,4.27641,0,0,0,90,15.627,4.37833,4.37833,0,0,0,94.37354,20H108V33.62694c0,.24061-.3471.51447-.56641.32033a9.30786,9.30786,0,0,0-9.98486-1.42578,9.3207,9.3207,0,0,0,.00049,16.957,9.304,9.304,0,0,0,9.98384-1.42476c.22267-.19739.56695.06909.56695.31929V62H94.37354A4.37355,4.37355,0,0,0,90,66.374a4.27574,4.27574,0,0,0,1.06006,2.84668,5.297,5.297,0,0,1,.77,5.68943,5.328,5.328,0,1,1-8.89015-5.68943A4.27641,4.27641,0,0,0,84,66.373,4.37833,4.37833,0,0,0,79.62646,62H66V48.373A.37343.37343,0,0,1,66.37354,48a.3137.3137,0,0,1,.19287.05273,9.30242,9.30242,0,0,0,9.98486,1.42578,9.3207,9.3207,0,0,0-.00049-16.957,9.30367,9.30367,0,0,0-9.98389,1.4248A.30928.30928,0,0,1,66.37354,34,.37343.37343,0,0,1,66,33.627ZM15.62646,44a4.27714,4.27714,0,0,0-2.84717,1.06055,5.29912,5.29912,0,0,1-5.68945.76953,5.32031,5.32031,0,0,1-.00049-9.66016,5.299,5.299,0,0,1,5.68945.76953A4.27962,4.27962,0,0,0,15.62646,38,4.37833,4.37833,0,0,0,20,33.627V20H33.62646A.37426.37426,0,0,1,34,20.374a.31679.31679,0,0,1-.05225.19238,9.30142,9.30142,0,0,0-1.42627,9.98438,9.32091,9.32091,0,0,0,16.95752,0,9.30165,9.30165,0,0,0-1.42725-9.98535A.32071.32071,0,0,1,48,20.373.37343.37343,0,0,1,48.37354,20H62V33.627A4.37833,4.37833,0,0,0,66.37356,38c1.98907,0,3.02388-1.61967,4.79934-2.12438a5.6816,5.6816,0,0,1,3.73719.29427,5.40325,5.40325,0,0,1,.52547,9.388,5.482,5.482,0,0,1-4.56328.453c-1.11735-.39259-1.8716-1.31865-2.96455-1.73693A4.38259,4.38259,0,0,0,62,48.373V62H48.37354A.37426.37426,0,0,1,48,61.626a.31679.31679,0,0,1,.05225-.19238,9.30142,9.30142,0,0,0,1.42627-9.98437,9.32091,9.32091,0,0,0-16.95752,0,9.30165,9.30165,0,0,0,1.42725,9.98535A.32071.32071,0,0,1,34,61.627a.37343.37343,0,0,1-.37354.373H20V48.373A4.37833,4.37833,0,0,0,15.62646,44ZM62,108H48.37354A4.37853,4.37853,0,0,0,44,112.374a4.27574,4.27574,0,0,0,1.06006,2.84668,5.297,5.297,0,0,1,.77,5.68945,5.32052,5.32052,0,0,1-9.66064,0,5.29683,5.29683,0,0,1,.769-5.68848A4.27532,4.27532,0,0,0,38,112.373,4.37833,4.37833,0,0,0,33.62646,108H20V94.373A.37343.37343,0,0,1,20.37354,94a.3137.3137,0,0,1,.19287.05273,9.30242,9.30242,0,0,0,9.98486,1.42578,9.3207,9.3207,0,0,0-.00049-16.957,9.30218,9.30218,0,0,0-9.98389,1.4248A.30928.30928,0,0,1,20.37354,80,.37343.37343,0,0,1,20,79.627V66H33.62646A4.37833,4.37833,0,0,0,38,61.627a4.275,4.275,0,0,0-1.06055-2.84766,5.297,5.297,0,0,1-.77-5.68945,5.32052,5.32052,0,0,1,9.66064,0,5.297,5.297,0,0,1-.77,5.68945A4.27641,4.27641,0,0,0,44,61.627,4.37833,4.37833,0,0,0,48.37354,66H62V79.6269c0,.23927-.348.51371-.56641.32036a9.306,9.306,0,0,0-9.98486-1.42578,9.3207,9.3207,0,0,0,.00049,16.957,9.30574,9.30574,0,0,0,9.98384-1.42476c.22353-.198.56694.07167.56694.31929Zm58.91016-16.16992a5.29632,5.29632,0,0,1-5.68994-.77051A4.279,4.279,0,0,0,112.37354,90,4.37833,4.37833,0,0,0,108,94.373V108H94.37357c-.242,0-.519-.34595-.32132-.56641a9.30142,9.30142,0,0,0,1.42627-9.98438,9.32091,9.32091,0,0,0-16.95752,0,9.30174,9.30174,0,0,0,1.42683,9.98488c.19723.22268-.07734.5659-.32136.5659H66V94.373A4.37833,4.37833,0,0,0,61.62646,90a4.27714,4.27714,0,0,0-2.84717,1.06055,5.301,5.301,0,0,1-5.68945.76953,5.32031,5.32031,0,0,1-.00049-9.66016,5.29517,5.29517,0,0,1,5.68945.76953A4.27962,4.27962,0,0,0,61.62646,84,4.37833,4.37833,0,0,0,66,79.627V66H79.62642c.245,0,.51905.342.32085.56641A9.3257,9.3257,0,1,0,94.0512,66.564c-.19688-.22217.0737-.564.32234-.564H108V79.627A4.37833,4.37833,0,0,0,112.37354,84a4.27744,4.27744,0,0,0,2.84717-1.06055,5.29735,5.29735,0,0,1,5.68994-.76953,5.32031,5.32031,0,0,1-.00049,9.66016Z"
                fill="#595bd4" class="color000 svgShape"></path>
        </svg>
    </g>
</svg>