<svg xmlns="http://www.w3.org/2000/svg" viewBox="0 0 32 32" width="256" height="256">
    <g data-name="Layer 2">
        <path fill="#fe9526"
            d="M23 13V5a3 3 0 0 0-3-3H6a3 3 0 0 0-3 3v22a3 3 0 0 0 3 3h14a3 3 0 0 0 3-3v-7a2 2 0 0 0-2 2v5a1 1 0 0 1-1 1H6a1 1 0 0 1-1-1V5a1 1 0 0 1 1-1h14a1 1 0 0 1 1 1v10a2 2 0 0 0 2-2Z"
            class="color171938 svgShape"></path>
        <path fill="#fe9526"
            d="M18 7H8a1 1 0 0 0 0 2h10a1 1 0 0 0 0-2zm1 5a1 1 0 0 0-1-1H8a1 1 0 0 0 0 2h10a1 1 0 0 0 1-1zM8 15a1 1 0 0 0 0 2h4a1 1 0 0 0 0-2z"
            class="color171938 svgShape"></path>
        <path fill="#595bd4"
            d="M14.414 26a1 1 0 0 1-.978-1.206l.752-3.581a1 1 0 0 1 .271-.5l9.42-9.419a3.073 3.073 0 0 1 4.243 0 3 3 0 0 1 0 4.243L18.7 24.954a.993.993 0 0 1-.5.272l-3.581.753a1.036 1.036 0 0 1-.205.021ZM18 24.247Zm-1.911-2.331-.376 1.79 1.787-.376 9.208-9.209a1 1 0 0 0 0-1.414 1.021 1.021 0 0 0-1.414 0Z"
            class="color4c46c8 svgShape"></path>
    </g>
</svg>