<svg id="SvgjsSvg1001" width="256" height="256" xmlns="http://www.w3.org/2000/svg" version="1.1"
    xmlns:xlink="http://www.w3.org/1999/xlink" xmlns:svgjs="http://svgjs.com/svgjs">
    <defs id="SvgjsDefs1002"></defs>
    <g id="SvgjsG1008">
        <svg xmlns="http://www.w3.org/2000/svg" enable-background="new 0 0 66 66"
            viewBox="0 0 66 66" width="256" height="256">
            <path fill="none" stroke="#101f2d" stroke-linecap="round" stroke-linejoin="round"
                stroke-miterlimit="10" stroke-width="2"
                d="M45.9,64H22c-2.2,0-4-1.8-4-4V6c0-2.2,1.8-4,4-4h23.8c2.2,0,4,1.8,4,4v54C49.9,62.2,48.1,64,45.9,64z"
                class="colorStroke101f2d svgStroke"></path>
            <line x1="31.6" x2="36.3" y1="6.1" y2="6.1" fill="#fff" stroke="#101f2d"
                stroke-linecap="round" stroke-linejoin="round" stroke-miterlimit="10"
                stroke-width="2" class="colorStroke101f2d svgStroke"></line>
            <line x1="27.8" x2="40.1" y1="59.9" y2="59.9" fill="#fff" stroke="#101f2d"
                stroke-linecap="round" stroke-linejoin="round" stroke-miterlimit="10"
                stroke-width="2" class="colorStroke101f2d svgStroke"></line>
            <path fill="none" stroke="#101f2d" stroke-linecap="round" stroke-linejoin="round"
                stroke-miterlimit="10" stroke-width="2"
                d="M41.8,28.3H26.1c-2,0-3.6-1.6-3.6-3.6v-8.7c0-2,1.6-3.6,3.6-3.6h15.7c2,0,3.5,1.6,3.5,3.6v8.7
    C45.3,26.7,43.7,28.3,41.8,28.3z"
                class="colorStroke101f2d svgStroke"></path>
            <rect width="8.8" height="8.8" x="22.5" y="34" fill="#ef6561" stroke="#101f2d"
                stroke-linecap="round" stroke-linejoin="round" stroke-miterlimit="10"
                stroke-width="2" class="coloref6561 svgShape colorStroke101f2d svgStroke"></rect>
            <line x1="22.5" x2="31.3" y1="34" y2="42.7" fill="none" stroke="#101f2d"
                stroke-linecap="round" stroke-linejoin="round" stroke-miterlimit="10"
                stroke-width="2" class="colorStroke101f2d svgStroke"></line>
            <line x1="31.3" x2="22.5" y1="34" y2="42.7" fill="none" stroke="#101f2d"
                stroke-linecap="round" stroke-linejoin="round" stroke-miterlimit="10"
                stroke-width="2" class="colorStroke101f2d svgStroke"></line>
            <rect width="8.9" height="8.9" x="36.4" y="34" fill="#64c4f6" stroke="#101f2d"
                stroke-linecap="round" stroke-linejoin="round" stroke-miterlimit="10"
                stroke-width="2" class="color64c4f6 svgShape colorStroke101f2d svgStroke"></rect>
            <line x1="36.4" x2="45.3" y1="34" y2="42.9" fill="none" stroke="#101f2d"
                stroke-linecap="round" stroke-linejoin="round" stroke-miterlimit="10"
                stroke-width="2" class="colorStroke101f2d svgStroke"></line>
            <line x1="45.3" x2="36.4" y1="34" y2="42.9" fill="none" stroke="#101f2d"
                stroke-linecap="round" stroke-linejoin="round" stroke-miterlimit="10"
                stroke-width="2" class="colorStroke101f2d svgStroke"></line>
            <line x1="22.5" x2="31.3" y1="48.4" y2="48.4" fill="none" stroke="#101f2d"
                stroke-linecap="round" stroke-linejoin="round" stroke-miterlimit="10"
                stroke-width="2" class="colorStroke101f2d svgStroke"></line>
            <line x1="22.5" x2="27.4" y1="53.5" y2="53.5" fill="none" stroke="#101f2d"
                stroke-linecap="round" stroke-linejoin="round" stroke-miterlimit="10"
                stroke-width="2" class="colorStroke101f2d svgStroke"></line>
            <line x1="45.3" x2="36.6" y1="48.4" y2="48.4" fill="none" stroke="#101f2d"
                stroke-linecap="round" stroke-linejoin="round" stroke-miterlimit="10"
                stroke-width="2" class="colorStroke101f2d svgStroke"></line>
            <line x1="45.3" x2="40.5" y1="53.5" y2="53.5" fill="none" stroke="#101f2d"
                stroke-linecap="round" stroke-linejoin="round" stroke-miterlimit="10"
                stroke-width="2" class="colorStroke101f2d svgStroke"></line>
            <path fill="none" stroke="#101f2d" stroke-linecap="round" stroke-linejoin="round"
                stroke-miterlimit="10" stroke-width="2"
                d="M5.1,21.9l-2,36.7c-0.2,3,2.2,5.5,5.2,5.5l0,0c3,0,5.3-2.5,5.2-5.5l-2-36.7"
                class="colorStroke101f2d svgStroke"></path>
            <path fill="#64c4f6" stroke="#101f2d" stroke-linecap="round" stroke-linejoin="round"
                stroke-miterlimit="10" stroke-width="2"
                d="M14.3,16.9C14.3,13.3,7.8,2,7.8,2S6.9,7.4,3,14.2C0.2,19,5,25.1,10.2,23C12.6,22,14.3,19.7,14.3,16.9z"
                class="color64c4f6 svgShape colorStroke101f2d svgStroke"></path>
            <rect width="10" height="62" x="53.8" y="2" fill="#ef6561" stroke="#101f2d"
                stroke-linecap="round" stroke-linejoin="round" stroke-miterlimit="10"
                stroke-width="2" transform="rotate(-180 58.834 33)"
                class="coloref6561 svgShape colorStroke101f2d svgStroke"></rect>
            <line x1="54.2" x2="58.3" y1="58.1" y2="58.1" fill="none" stroke="#101f2d"
                stroke-linecap="round" stroke-linejoin="round" stroke-miterlimit="10"
                stroke-width="2" class="colorStroke101f2d svgStroke"></line>
            <line x1="54.2" x2="57" y1="51.8" y2="51.8" fill="none" stroke="#101f2d"
                stroke-linecap="round" stroke-linejoin="round" stroke-miterlimit="10"
                stroke-width="2" class="colorStroke101f2d svgStroke"></line>
            <line x1="54.2" x2="58.3" y1="45.5" y2="45.5" fill="none" stroke="#101f2d"
                stroke-linecap="round" stroke-linejoin="round" stroke-miterlimit="10"
                stroke-width="2" class="colorStroke101f2d svgStroke"></line>
            <line x1="54.2" x2="57" y1="39.3" y2="39.3" fill="none" stroke="#101f2d"
                stroke-linecap="round" stroke-linejoin="round" stroke-miterlimit="10"
                stroke-width="2" class="colorStroke101f2d svgStroke"></line>
            <line x1="54.2" x2="58.3" y1="33" y2="33" fill="none" stroke="#101f2d"
                stroke-linecap="round" stroke-linejoin="round" stroke-miterlimit="10"
                stroke-width="2" class="colorStroke101f2d svgStroke"></line>
            <line x1="54.2" x2="57" y1="26.7" y2="26.7" fill="none" stroke="#101f2d"
                stroke-linecap="round" stroke-linejoin="round" stroke-miterlimit="10"
                stroke-width="2" class="colorStroke101f2d svgStroke"></line>
            <line x1="54.2" x2="58.3" y1="20.5" y2="20.5" fill="none" stroke="#101f2d"
                stroke-linecap="round" stroke-linejoin="round" stroke-miterlimit="10"
                stroke-width="2" class="colorStroke101f2d svgStroke"></line>
            <line x1="54.2" x2="57" y1="14.2" y2="14.2" fill="none" stroke="#101f2d"
                stroke-linecap="round" stroke-linejoin="round" stroke-miterlimit="10"
                stroke-width="2" class="colorStroke101f2d svgStroke"></line>
            <line x1="54.2" x2="58.3" y1="7.9" y2="7.9" fill="none" stroke="#101f2d"
                stroke-linecap="round" stroke-linejoin="round" stroke-miterlimit="10"
                stroke-width="2" class="colorStroke101f2d svgStroke"></line>
            <circle cx="33.8" cy="18.4" r="2.9" fill="#64c4f6" stroke="#101f2d"
                stroke-linecap="round" stroke-linejoin="round" stroke-miterlimit="10"
                stroke-width="2" class="color64c4f6 svgShape colorStroke101f2d svgStroke"></circle>
            <path fill="#ef6561" stroke="#101f2d" stroke-linecap="round" stroke-linejoin="round"
                stroke-miterlimit="10" stroke-width="2"
                d="M39.6,28.3H28.3v-1.4c0-1.4,1.1-2.5,2.5-2.5h6.3c1.4,0,2.5,1.1,2.5,2.5V28.3z"
                class="coloref6561 svgShape colorStroke101f2d svgStroke"></path>
        </svg>
    </g>
</svg>