<svg xmlns="http://www.w3.org/2000/svg" viewBox="0 0 24 24" id="logo">
    <path
        d="M21.8 6.1 12.3.6c-.1-.1-.3-.1-.5 0L2.2 6.1c-.1.1-.2.2-.2.4v10.4c0 .9.7 1.6 1.6 1.6.9 0 1.6-.7 1.6-1.6V8L12 4l6.9 4v8.9c0 .9.7 1.6 1.6 1.6.9 0 1.6-.7 1.6-1.6V6.5c-.1-.2-.2-.3-.3-.4z"
        fill="#34a853" class="color000000 svgShape"></path>
    <path
        d="M16.9 9.3 14.8 8c-.1-.1-.3-.1-.5 0s-.3.3-.3.4v10.4L12 20l-2-1.2V8.4c0-.1-.1-.3-.3-.4-.1-.1-.3-.1-.5 0L7.1 9.3c-.2 0-.3.2-.3.4v10.6c0 .2.1.3.2.4l4.7 2.7c.1 0 .2.1.2.1s.2 0 .2-.1l4.7-2.7c.1-.1.2-.2.2-.4V9.7c.2-.2.1-.4-.1-.4z"
        fill="#34a853" class="color000000 svgShape"></path>
</svg>