<svg xmlns="http://www.w3.org/2000/svg" viewBox="0 0 32 32" width="256" height="256">
    <path fill="#edf6ff" d="M27,20,16,29,5,20H8a2,2,0,0,0,2-2V7H22V18a2,2,0,0,0,2,2Z"
        class="coloredf6ff svgShape"></path>
    <path fill="#edf6ff" d="M22,18V7H10V18a2,2,0,0,1-2,2H5l11,9,11-9H24A2,2,0,0,1,22,18Z"
        class="coloredf6ff svgShape"></path>
    <path fill="#84b5ff"
        d="M7.44,22,16,29l8.94-7.31A2,2,0,0,1,24,20a2,2,0,0,1-2-2V9H13a1,1,0,0,0-1,1V20a2,2,0,0,1-2,2Z"
        class="color84b5ff svgShape"></path>
    <path fill="#2c67cc"
        d="M16 30a1 1 0 0 1-.63-.23l-11-9a1 1 0 0 1-.31-1.11A1 1 0 0 1 5 19H8a1 1 0 0 0 1-1V14a1 1 0 0 1 2 0v4a3 3 0 0 1-3 3H7.8L16 27.71 24.2 21H24a3 3 0 0 1-3-3V8H11v2a1 1 0 0 1-2 0V7a1 1 0 0 1 1-1H22a1 1 0 0 1 1 1V18a1 1 0 0 0 1 1h3a1 1 0 0 1 .94.66 1 1 0 0 1-.31 1.11l-11 9A1 1 0 0 1 16 30zM22 4H10a1 1 0 0 1 0-2H22a1 1 0 0 1 0 2z"
        class="color2c67cc svgShape"></path>
</svg>