<svg xmlns="http://www.w3.org/2000/svg" width="42" height="42" viewBox="0 0 42 42" fill="none">
    <g clip-path="url(#clip0_1102_45357)">
        <path
            d="M5.48589 41.6226L28.5964 25.5046C28.5964 25.5046 29.6393 24.9017 29.6393 23.9503C29.6393 22.6832 28.3204 22.2711 28.3204 22.2711L15.6065 17.2077C15.1529 17.0288 14.5285 17.5304 15.1131 18.1662L19.3222 22.4053C19.3222 22.4053 20.4914 23.5617 20.4914 24.32C20.4914 25.0783 19.7736 25.7542 19.7736 25.7542L4.457 40.6476C3.91215 41.1775 4.64874 42.1384 5.48589 41.6226Z"
            fill="#2379F4" />
        <path
            d="M24.1534 0.760004L1.04294 16.8757C1.04294 16.8757 7.62939e-06 17.4786 7.62939e-06 18.43C7.62939e-06 19.697 1.31887 20.1092 1.31887 20.1092L14.0328 25.1749C14.4864 25.3515 15.1131 24.8499 14.5262 24.2164L10.3171 19.9632C10.3171 19.9632 9.14786 18.8092 9.14786 18.0485C9.14786 17.2878 9.86575 16.6143 9.86575 16.6143L25.173 1.73264C25.7272 1.20276 24.9929 0.241891 24.1534 0.760004Z"
            fill="#2379F4" />

    </g>
    <defs>
        <clipPath id="clip0_1102_45357">
            <rect width="42" height="42" fill="white" />
        </clipPath>
    </defs>
    <script xmlns="" />
</svg>